<svg xmlns="http://www.w3.org/2000/svg" width="804" height="504" fill="none">
  <path fill="#2563EB" d="M353.707 22.897C367.485 15.2558 380.917 6.89572 395.082 0c17.638 9.33185 34.691 19.742 52.183 29.3401 2.104 1.2779 4.819 2.7556 4.234 5.7109-.014 17.2792.066 43.0171-.147 60.2963-6.403 7.4817-47.764 30.5857-54.966 34.2867-1.824 1.305-3.874-.04-5.538-.852-15.362-8.599-30.431-17.851-46.206-25.639-20.554 10.956-40.549 22.99-60.957 34.226-.253 16.906.187 33.826-.213 50.719-15.362 10.384-31.63 19.303-47.418 28.981.24 20.061.293 40.123.306 60.171.067 2.556-.053 5.192.746 7.668 14.577 9.438 30.218 17.186 44.822 26.571 2.343 1.051 1.904 3.647 1.97 5.777-.213 15.882-.133 31.776-.066 47.658 20.98 11.302 41.334 23.722 62.287 35.091 14.151-8.214 28.515-16.041 42.892-23.842 3.009-1.704 6.723-3.448 9.944-1.092 15.203 8.094 29.926 17.053 45.182 25.04 20.541-12.26 41.454-23.882 62.421-35.357.213-16.267-.12-32.535.08-48.802-.027-1.837.066-4.047 1.997-4.926 14.963-9.012 30.578-16.973 45.274-26.425.054-23.456-.692-66.683-.109-66.555-.567-.352 19.445-.639 19.186-.445.269-.217.04 39.79-.053 59.692.119 3.714-.15 7.432.183 7.073.067.639 5.301 3.271 5.368 3.91 12.26 6.722 24.228 13.964 36.355 20.886 1.97 1.305 4.952 2.57 4.66 5.432.186 19.089-.08 38.192-.027 57.282-.12 2.516.2 5.152-.626 7.601-2.023 1.851-4.553 3.022-6.922 4.353-15.655 8.587-30.938 17.839-46.579 26.425-2.982 1.797-5.978-.865-8.613-2.063-14.591-8.626-29.647-16.427-44.61-24.375-20.287 11.342-40.176 23.43-60.424 34.852-.293 17.545.094 35.09-.066 52.636-6.031 4.846-13.219 7.867-19.769 11.888-10.876 5.95-21.432 12.473-32.229 18.584-2.529 1.637-5.804 2.169-8.4.386-15.841-8.973-31.51-18.225-47.617-26.705-1.957-1.264-5.259-2.223-5.006-5.112-.333-17.279 0-34.571-.386-51.837-20.261-11.289-40.296-23.044-60.53-34.399-16.095 7.561-31.271 17.08-47.032 25.36-1.784.878-3.888 2.09-5.831.852-8.427-4.233-16.374-9.332-24.681-13.805-9.691-5.658-20.048-10.21-29.26-16.667-.759-16.88-.093-33.786-.32-50.679.147-5.498-.466-11.036.267-16.481 4.02-3.741 9.252-5.871 13.844-8.812 10.73-6.537 21.979-12.261 32.442-19.197.493-22.364.067-44.755.187-67.133-14.604-9.399-29.873-17.705-44.676-26.758-2.13-.971-2.064-3.487-2.104-5.458.067-20.354-.133-40.722.014-61.076-.346-3.062 2.995-4.14 5.045-5.525 16.734-9.531 33.334-19.3422 50.373-28.3146 2.317.8387 4.58 1.7972 6.736 3.0086 14.844 8.427 29.78 16.707 44.863 24.721 20.048-11.848 40.415-23.1635 60.783-34.4655.519-17.1595-.399-34.3588.466-51.4783 4.459-3.8472 9.891-6.2834 14.896-9.3052Zm4.393 20.7803c-.239 14.497.08 28.994.067 43.491 12.127 7.082 24.228 14.3237 36.835 20.5007 12.54-6.563 24.561-14.1641 36.928-21.0732.173-14.3106.186-28.6478-.054-42.9584-12.154-7.4149-24.534-14.4304-36.888-21.4859-12.433 6.9356-24.64 14.2706-36.888 21.5258ZM189.834 133.654c-.279 14.551-.066 29.101-.12 43.651 10.623 6.63 21.832 12.261 32.482 18.85 1.89.786 4.074 3.075 6.164 1.598 11.914-6.776 23.709-13.765 35.53-20.714.226-14.244.066-28.502-.12-42.759-10.916-6.949-22.298-13.112-33.427-19.689-1.651-.892-3.701-2.649-5.538-1.118-11.568 6.883-23.309 13.445-34.971 20.181Zm33.653 170.689c-11.382 6.55-22.684 13.246-33.826 20.182.24 13.552-.146 27.117.173 40.668-.439 2.303 1.904 3.382 3.488 4.367 11.275 6.35 22.338 13.112 33.826 19.089 12.46-6.549 24.575-13.711 36.782-20.713.133-14.75.093-29.487-.053-44.237-11.888-6.842-23.909-13.458-35.797-20.287-1.557-1.305-3.221.213-4.593.931Zm302.853 19.623c.399 14.616-.32 29.26.213 43.877 11.834 7.508 24.441 13.818 36.528 20.953 12.541-7.042 25.267-13.885 37.248-21.859-.173-14.204-.266-28.421-.04-42.625-11.834-8.161-24.787-14.551-37.341-21.5-12.313 6.856-24.427 14.058-36.608 21.154Zm-168.147 92.613c.04 14.789-.159 29.579.32 44.356 12.127 6.776 24.042 13.964 36.316 20.501 12.273-7.043 24.854-13.592 36.821-21.167.972-14.55.399-29.353.28-43.997-12.407-6.962-24.588-14.297-37.021-21.219-12.234 7.175-24.495 14.324-36.716 21.526Z"/>
  <path fill="#22C55E" d="M542.088 140.83c1.784-2.357 4.513-3.568 7.442-2.676 3.101 1.877 5.245 4.912 7.867 7.362 7.615 7.907 15.629 15.428 23.762 22.79 3.115 2.21 3.701 7.109.812 9.758-40.748 40.855-82.322 80.871-123.137 121.687-19.05 19.169-38.632 37.82-57.429 57.255-2.902 3.368-8.56 5.299-12.048 1.704-38.339-36.608-76.212-73.709-114.871-109.972-5.005-5.165-10.969-9.345-15.602-14.856-2.343-2.676-1.078-6.643 1.119-8.959 8.187-8.733 17.119-16.72 25.226-25.52 2.423-2.423 4.819-5.844 8.68-5.631 3.022-.226 5.271 2.104 7.375 3.941 18.956 18.357 38.352 36.275 57.122 54.846 12.327 11.422 24.415 23.083 36.489 34.771 39.764-39.071 79.021-78.648 118.652-117.853 9.678-9.385 19.023-19.103 28.541-28.647Z"/>
  <path fill="#2563EB" d="M.57455 179.755c21.43265-.426 42.87855-.16 64.31125-.24 11.5283.186 23.1765-.719 34.5717 1.571 23.9755 4.646 45.8475 20.008 57.7885 41.387 8.44 14.883 11.235 32.748 8.373 49.575-2.676 17.08-11.315 33.014-23.629 45.075-15.868 15.176-37.713 24.335-59.7718 23.896-27.1435-.04-54.2871.173-81.43065-.107-.958478-6.536-.292878-13.152-.426-19.715.159746-27.184-.3195004-54.394.346109-81.564 13.099241-.746 26.251641-.453 39.364141-.173.6656 20.221.0533 40.469.2796 60.69 13.4986.133 27.0104-.027 40.509.053 4.0469.014 8.1204.133 12.1274-.559 13.0062-1.824 24.7742-10.836 29.8192-22.99 4.42-9.891 4.819-21.539.839-31.643-5.325-14.124-19.689-24.335-34.7983-24.561-29.4998-.2-58.9863.346-88.48615-.053-.013313-13.552-.3328004-27.117.213-40.642ZM650.662 198.738c9.785-12.341 25.586-19.41 41.268-19.143 32.841-.027 65.696-.107 98.537-.147 3.714.027 7.468-.279 11.169.36 1.984 2.01-.839 4.02-1.85 5.657-9.825 11.555-19.343 23.377-29.127 34.958-26.745.306-53.489.107-80.233.253-5.019-.08-9.332 4.952-8.72 9.891.054 5.312 5.312 9.092 10.344 8.799 17.239.014 34.465-.039 51.705.027 7.068.067 14.257-.439 21.193 1.331 14.297 3.861 26.704 14.085 33.32 27.317 5.671 11.142 6.47 24.481 2.955 36.409-6.097 20.62-26.358 36.555-48.03 36.555-38.193-.066-76.372.453-114.565.346-1.717-.146-3.381-.519-4.979-1.118 1.891-4.113 5.072-7.375 7.921-10.796 7.162-8.414 14.604-16.574 21.845-24.907 1.917-1.957 3.874-4.66 7.016-4.154 27.57-.532 55.179.133 82.749-.412 6.123.293 11.102-6.483 9.132-12.221-1.065-3.994-5.032-6.962-9.159-6.842-21.752-.134-43.491-.08-65.243-.174-21.273-.519-41.055-16.067-46.513-36.661-4.286-15.403-1.118-32.988 9.265-45.328Z"/>
</svg>
