<svg xmlns="http://www.w3.org/2000/svg" fill="none" aria-hidden="true" viewBox="0 0 2405 2501">
  <g stroke-width="5.94955" clip-path="url(#a)">
    <path fill="#E4761B" stroke="#E4761B" d="m2278.79 1730.86-145.17 490.83-284.98-77.93 430.15-412.9Z"/>
    <path fill="#E4761B" stroke="#E4761B" d="m1848.64 2143.76 274.87-376.61 155.28-36.29-430.15 412.9Z"/>
    <path fill="#F6851B" stroke="#F6851B" d="m2065.2 1360.79 213.59 370.07-155.28 36.29-58.31-406.36Zm0 0 137.44-95.19 76.15 465.26-213.59-370.07Z"/>
    <path fill="#763D16" stroke="#763D16" d="m1890.29 1081.17 395.05-161.832-19.64 88.652-375.41 73.18Zm362.92 33.31-362.92-33.31 375.41-73.18-12.49 106.49Z"/>
    <path fill="#763D16" stroke="#763D16" d="m2253.21 1114.48-50.57 151.12-312.35-184.43 362.92 33.31Zm79.13-157.66-66.64 51.17 19.64-88.652 47 37.482Zm-79.13 157.66 12.49-106.49 52.95 44.02-65.44 62.47Z"/>
    <path fill="#E2761B" stroke="#E2761B" d="m1542.24 2024.17 98.76 31.53 207.64 88.05-306.4-119.58Z"/>
    <path fill="#763D16" stroke="#763D16" d="m2202.64 1265.6 50.57-151.12 43.43 33.32-94 117.8Zm0 0-409.93-135.05 97.58-49.38 312.35 184.43Z"/>
    <path fill="#763D16" stroke="#763D16" d="m1987.86 617.696-97.57 463.474-97.58 49.38 195.15-512.854Zm297.48 301.642-395.05 161.832 97.57-463.474 297.48 301.642Z"/>
    <path fill="#763D16" stroke="#763D16" d="m1987.86 617.696 412.3-47.596-114.82 349.238-297.48-301.642Z"/>
    <path fill="#F6851B" stroke="#F6851B" d="m2202.64 1265.6-137.44 95.19-272.49-230.24 409.93 135.05Z"/>
    <path fill="#763D16" stroke="#763D16" d="m2382.31 236.33 17.85 333.77-412.3 47.596 394.45-381.366Z"/>
    <path fill="#E2761B" stroke="#E2761B" d="M2382.31 236.33 1558.3 835.45l-10.71-406.355 834.72-192.765Z"/>
    <path fill="#F6851B" stroke="#F6851B" d="m934.789 380.309 612.801 48.786 10.71 406.354-623.511-455.14Z"/>
    <path fill="#763D16" stroke="#763D16" d="M1792.71 1130.55 1558.3 835.449l429.56-217.753-195.15 512.854Z"/>
    <path fill="#E4761B" stroke="#E4761B" d="m1792.71 1130.55 272.49 230.24-382.55 42.25 110.06-272.49Z"/>
    <path fill="#E4761B" stroke="#E4761B" d="M1682.65 1403.04 1558.3 835.449l234.41 295.101-110.06 272.49Z"/>
    <path fill="#763D16" stroke="#763D16" d="M1987.86 617.696 1558.3 835.45l824.01-599.12-394.45 381.366Z"/>
    <path fill="#C0AD9E" stroke="#C0AD9E" d="m940.144 2134.24 194.546 202.87-264.751-240.95 70.205 38.08Z"/>
    <path fill="#CD6116" stroke="#CD6116" d="m1848.64 2143.75 92.22-350.42 182.65-26.18-274.87 376.6Z"/>
    <path fill="#E2761B" stroke="#E2761B" d="m151.234 1157.92 336.744-354.003-293.312 311.753-43.432 42.25Z"/>
    <path fill="#F6851B" stroke="#F6851B" d="m2123.51 1767.15-182.65 26.18 124.34-432.54 58.31 406.36ZM1558.3 835.449l-327.82-10.709-295.691-444.431 623.511 455.14Z"/>
    <path fill="#E4751F" stroke="#E4751F" d="m2065.2 1360.79-124.34 432.54-10.12-211.21 134.46-221.33Z"/>
    <path fill="#CD6116" stroke="#CD6116" d="m1682.65 1403.04 382.55-42.25-134.46 221.33-248.09-179.08Z"/>
    <path fill="#F6851B" stroke="#F6851B" d="m1230.48 824.74 327.82 10.709 124.35 567.591-452.17-578.3Z"/>
    <path fill="#E4761B" stroke="#E4761B" d="M1230.48 824.74 345.784 6.08252 934.79 380.309l295.69 444.431ZM934.195 2258.58l-768.682 237.98-153.4984-586.03 922.1804 348.05Z"/>
    <path fill="#763D16" stroke="#763D16" d="m265.465 1304.27 290.338-227.86 243.337 56.52-533.675 171.34Z"/>
    <path fill="#763D16" stroke="#763D16" d="m799.139 1132.93-243.336-56.52 130.295-537.843 113.041 594.363Zm-604.473-17.26 361.137-39.26-290.338 227.86-70.799-188.6Z"/>
    <path fill="#CD6116" stroke="#CD6116" d="m1930.74 1582.12-149.93-75.56-98.16-103.52 248.09 179.08Z"/>
    <path fill="#763D16" stroke="#763D16" d="m194.666 1115.67-25.583-135.052 386.72 95.792-361.137 39.26Z"/>
    <path fill="#233447" stroke="#233447" d="m1749.88 1676.72 30.93-170.16 149.93 75.56-180.86 94.6Z"/>
    <path fill="#F6851B" stroke="#F6851B" d="m1940.86 1793.33-190.98-116.61 180.86-94.6 10.12 211.21Z"/>
    <path fill="#763D16" stroke="#763D16" d="m555.803 1076.41-386.721-95.792-31.532-113.636 418.253 209.428Zm130.295-537.843L555.803 1076.41 137.55 866.982l548.548-328.415Zm0 0L1230.48 824.74l-431.341 308.19-113.041-594.363Z"/>
    <path fill="#E4761B" stroke="#E4761B" d="m799.14 1132.93 431.34-308.19 192.17 587.22-623.51-279.03Zm623.51 279.03-596.142-12.49-27.368-266.54 623.51 279.03Z"/>
    <path fill="#F6851B" stroke="#F6851B" d="m265.465 1304.27 533.675-171.34 27.368 266.54-561.043-95.2Zm1417.185 98.77-260 8.92-192.17-587.22 452.17 578.3Z"/>
    <path fill="#CD6116" stroke="#CD6116" d="m1780.81 1506.56-30.93 170.16-67.23-273.68 98.16 103.52Z"/>
    <path fill="#763D16" stroke="#763D16" d="M345.784 6.08252 1230.48 824.74 686.098 538.567 345.784 6.08252Z"/>
    <path fill="#E4761B" stroke="#E4761B" d="m12.0146 1910.53 746.0734-30.94 176.107 378.99-922.1804-348.05Z"/>
    <path fill="#CD6116" stroke="#CD6116" d="m934.194 2258.58-176.106-378.99 366.492-17.84-190.386 396.83Z"/>
    <path fill="#F6851B" stroke="#F6851B" d="m1749.88 1676.72 190.98 116.61 105.3 248.09-296.28-364.7Zm-923.372-277.25L12.0146 1910.53l253.4504-606.26 561.043 95.2Zm-68.42 480.12-746.0734 30.94 814.4934-511.06-68.42 480.12Zm924.562-476.55 48.78 177.29-235.6 13.69 186.82-190.98Zm-186.82 190.98-73.18-182.06 260-8.92-186.82 190.98Z"/>
    <path fill="#C0AD9E" stroke="#C0AD9E" d="m1134.69 2337.11-200.496-78.53 697.286 117.21-496.79-38.68Z"/>
    <path fill="#763D16" stroke="#763D16" d="m265.465 1304.27-114.231-146.36 43.432-42.24 70.799 188.6Z"/>
    <path fill="#D7C1B3" stroke="#D7C1B3" d="m1710.61 2288.92-79.13 86.87-697.286-117.21 776.416 30.34Z"/>
    <path fill="#E4761B" stroke="#E4761B" d="m1748.09 2075.93-813.896 182.65 190.386-396.83 623.51 214.18Z"/>
    <path fill="#D7C1B3" stroke="#D7C1B3" d="m934.194 2258.58 813.896-182.65-37.48 212.99-776.416-30.34Z"/>
    <path fill="#763D16" stroke="#763D16" d="m137.55 866.982-26.773-457.52 575.321 129.105L137.55 866.982Zm57.115 248.688-79.129-80.32 53.546-54.732 25.583 135.052Z"/>
    <path fill="#CD6116" stroke="#CD6116" d="m1289.38 1529.76 133.27-117.8-19.04 287.96-114.23-170.16Z"/>
    <path fill="#CD6116" stroke="#CD6116" d="m1422.65 1411.96-133.27 117.8-193.95 100.55 327.22-218.35Z"/>
    <path fill="#F6851B" stroke="#F6851B" d="m2046.16 2041.42-36.29-26.77-259.99-337.93 296.28 364.7Z"/>
    <path fill="#CD6116" stroke="#CD6116" d="m1095.43 1630.31-268.922-230.84 596.142 12.49-327.22 218.35Z"/>
    <path fill="#E4751F" stroke="#E4751F" d="m1403.61 1699.92 19.04-287.96 73.18 182.06-92.22 105.9Z"/>
    <path fill="#763D16" stroke="#763D16" d="m89.3589 912.199 48.1911-45.217 31.533 113.636-79.7241-68.419Z"/>
    <path fill="#233447" stroke="#233447" d="m1403.61 1699.92-308.18-69.61 193.95-100.55 114.23 170.16Z"/>
    <path fill="#763D16" stroke="#763D16" d="M686.098 538.567 110.777 409.462 345.784 6.08252 686.098 538.567Z"/>
    <path fill="#C0AD9E" stroke="#C0AD9E" d="m1631.48 2375.79 32.72 89.24-529.51-127.91 496.79 38.67Z"/>
    <path fill="#F6851B" stroke="#F6851B" d="m1124.58 1861.75-29.15-231.44 308.18 69.61-279.03 161.83Z"/>
    <path fill="#E4751F" stroke="#E4751F" d="m826.508 1399.47 268.922 230.84 29.15 231.44-298.072-462.28Z"/>
    <path fill="#F6851B" stroke="#F6851B" d="m1495.83 1594.02 235.6-13.69 278.44 434.32-514.04-420.63Zm-669.322-194.55 298.072 462.28-366.492 17.84 68.42-480.12Z"/>
    <path fill="#E4751F" stroke="#E4751F" d="m1495.83 1594.02 292.72 445.62-384.94-339.72 92.22-105.9Z"/>
    <path fill="#F6851B" stroke="#F6851B" d="m1403.61 1699.92 384.94 339.72-40.46 36.29-344.48-376.01Z"/>
    <path fill="#F6851B" stroke="#F6851B" d="m1748.09 2075.93-623.51-214.18 279.03-161.83 344.48 376.01Zm261.78-61.28-221.32 24.99-292.72-445.62 514.04 420.63Z"/>
    <path fill="#C0AD9E" stroke="#C0AD9E" d="m2068.18 2224.07-95.19 190.98-308.79 49.98 403.98-240.96Zm-403.98 240.96-32.72-89.24 79.13-86.87-46.41 176.11Z"/>
    <path fill="#C0AD9E" stroke="#C0AD9E" d="m1710.61 2288.92 58.31-23.2-104.72 199.31 46.41-176.11Zm-46.41 176.11 104.72-199.31 299.26-41.65-403.98 240.96Z"/>
    <path fill="#161616" stroke="#161616" d="m2009.87 2014.65 73.18 44.62-222.51 26.77 149.33-71.39Z"/>
    <path fill="#161616" stroke="#161616" d="m1860.54 2086.04-71.99-46.4 221.32-24.99-149.33 71.39Zm-25.58 35.11 270.7-32.73-37.48 135.65-233.22-102.92Z"/>
    <path fill="#161616" stroke="#161616" d="m2068.18 2224.07-299.26 41.65 66.04-144.57 233.22 102.92Zm-299.26 41.65-58.31 23.2 37.48-212.99 20.83 189.79Zm-20.83-189.79 40.46-36.29 71.99 46.4-112.45-10.11Zm334.96-16.66 22.61 29.15-270.7 32.73 248.09-61.88Z"/>
    <path fill="#161616" stroke="#161616" d="m1834.96 2121.15 25.58-35.11 222.51-26.77-248.09 61.88Zm-86.87-45.22 86.87 45.22-66.04 144.57-20.83-189.79Z"/>
    <path fill="#161616" stroke="#161616" d="m1860.54 2086.04-25.58 35.11-86.87-45.22 112.45 10.11Z"/>
  </g>
  <defs>
    <clipPath id="a">
      <path fill="#fff" d="M.519043.132812h2404v2500h-2404z"/>
    </clipPath>
  </defs>
</svg>